<svg width="39" height="40" viewBox="0 0 39 40" fill="none" xmlns="http://www.w3.org/2000/svg">
<g id="Group 39594">
<path id="Vector" d="M13.8215 19.8846C13.8215 16.3193 17.3212 13.7897 20.7732 14.6814C22.5492 15.1402 24.4052 15.5606 25.9975 15.7961C28.6021 16.1814 32.0513 16.3016 34.6134 16.332C36.5672 16.3552 38.1735 17.9306 38.1735 19.8846C38.1735 21.8386 36.5672 23.414 34.6134 23.4372C32.0513 23.4677 28.6021 23.5878 25.9975 23.9731C24.4052 24.2087 22.5492 24.629 20.7732 25.0878C17.3212 25.9795 13.8215 23.4499 13.8215 19.8846Z" fill="black"/>
<path id="Vector_2" d="M27.6879 27.6022L27.6395 27.5538C26.6402 28.5632 25.4504 29.3642 24.1392 29.9104C22.828 30.4566 21.4215 30.7371 20.001 30.7357C14.0536 30.7357 9.2326 25.9147 9.2326 19.9678C9.2326 14.0209 14.0524 9.19996 19.9999 9.19996C21.4142 9.19823 22.8149 9.47597 24.1215 10.0172C25.4282 10.5585 26.615 11.3526 27.6138 12.3539L27.6255 12.365L27.6348 12.3749C28.4702 13.2051 29.5914 13.6846 30.7688 13.7151C31.9463 13.7455 33.0908 13.3247 33.968 12.5387C34.8452 11.7527 35.3887 10.6611 35.4872 9.48743C35.5857 8.31374 35.2317 7.14681 34.4978 6.22563C34.3921 6.09371 34.2792 5.96776 34.1596 5.84837C34.0415 5.73022 33.9171 5.61849 33.787 5.51368C30.0731 1.96844 25.1342 -0.00668322 19.9999 1.69912e-05C8.9533 1.69912e-05 0 8.95331 0 19.9999C0 31.0465 8.9533 39.9998 19.9999 39.9998C25.0664 40.0066 29.9453 38.0832 33.6441 34.6208C33.8229 34.4536 33.9979 34.2832 34.1689 34.1094C34.3485 33.929 34.5244 33.7456 34.6966 33.559C35.37 32.6177 35.6651 31.4577 35.5235 30.309C35.3818 29.1603 34.8138 28.1067 33.9319 27.3572C33.05 26.6076 31.9186 26.2168 30.7621 26.2622C29.6056 26.3076 28.5083 26.7858 27.6879 27.6022Z" fill="#1B9318"/>
</g>
</svg>
